<svg width="103" height="37" viewBox="0 0 103 37" fill="none" xmlns="http://www.w3.org/2000/svg">
<rect y="0.638916" width="36.1062" height="36.1062" rx="18.0531" fill="#ABABAB"/>
<path d="M14.9602 4.51526C16.6401 2.83535 19.3638 2.83535 21.0437 4.51526L32.128 15.5995C33.8079 17.2794 33.8079 20.0031 32.128 21.683L21.0437 32.7673C19.3638 34.4472 16.6401 34.4472 14.9602 32.7673L3.87595 21.683C2.19604 20.0031 2.19604 17.2794 3.87595 15.5995L14.9602 4.51526Z" fill="#3B1082"/>
<path d="M5.82861 10.7696C5.82861 8.39389 7.75454 6.46796 10.1303 6.46796L25.8739 6.46796C28.2497 6.46796 30.1756 8.39389 30.1756 10.7696V26.5133C30.1756 28.889 28.2497 30.815 25.8739 30.815H10.1303C7.75454 30.815 5.82861 28.889 5.82861 26.5133L5.82861 10.7696Z" fill="#3B1082"/>
<path d="M23.0458 13.1376C23.5896 13.2574 24.116 13.3597 24.6324 13.4919C25.1812 13.6316 25.7251 13.8012 26.2689 13.9534C26.3463 13.9759 26.3762 14.0058 26.3762 14.0931C26.3737 15.792 26.3912 17.4934 26.3687 19.1923C26.3438 21.0184 25.7675 22.6699 24.6574 24.1218C23.42 25.7409 21.8009 26.7837 19.8201 27.2577C19.0393 27.4448 18.2435 27.5072 17.4427 27.4598C15.5392 27.3475 13.8528 26.6764 12.4108 25.4316C10.924 24.1518 9.98596 22.5402 9.60926 20.6093C9.50199 20.0605 9.45958 19.5041 9.45958 18.9453C9.45708 17.3362 9.45958 15.7296 9.45459 14.1206C9.45459 14.0133 9.48952 13.9759 9.58681 13.9459C10.6246 13.6141 11.6824 13.3522 12.7526 13.1576C12.7626 13.1551 12.7726 13.1576 12.7975 13.1551C12.7975 13.1975 12.7975 13.2399 12.7975 13.2798C12.7975 15.2981 12.79 17.3188 12.8025 19.337C12.81 20.3548 12.9472 21.3602 13.2939 22.3257C13.5684 23.0915 13.975 23.7751 14.5812 24.3289C15.15 24.8453 15.8161 25.1721 16.562 25.3318C17.6173 25.5588 18.6701 25.5413 19.7054 25.2145C20.9278 24.8303 21.776 24.0171 22.3198 22.872C22.6117 22.2608 22.7863 21.6122 22.8961 20.9461C23.0183 20.2052 23.0483 19.4567 23.0483 18.7083C23.0483 16.9071 23.0483 15.1035 23.0483 13.3023C23.0458 13.2549 23.0458 13.21 23.0458 13.1376Z" fill="white"/>
<path d="M19.4009 16.8797C18.4055 16.8797 17.4201 16.8797 16.4297 16.8797C16.4297 14.5596 16.4297 12.242 16.4297 9.92692C16.739 9.82962 18.8121 9.82214 19.4009 9.91943C19.4009 12.2395 19.4009 14.5596 19.4009 16.8797Z" fill="white"/>
<path d="M75.4314 6.06638C75.4314 4.21806 74.0564 3.29391 71.2975 3.30292C69.3996 3.30292 67.1906 3.81684 67.1906 5.8545C67.1906 6.92742 67.8353 7.77945 68.782 8.06796C69.7512 8.37 70.734 8.51426 71.7302 8.5909C72.2893 8.63598 73.3306 8.79827 73.3306 9.41588C73.3216 9.9839 72.6769 10.2679 71.4057 10.2679C70.0893 10.2679 69.5213 9.97488 69.5213 9.21302V8.95606H67.0283V9.21302C67.0283 11.1199 68.4799 12.0711 71.4057 12.0711C74.3449 12.0802 75.8236 11.1785 75.8236 9.39334C75.8236 8.03641 74.8589 7.21143 73.6597 6.9725C72.5011 6.73357 71.2885 6.70652 70.3237 6.45858C69.9045 6.34588 69.6881 6.11596 69.6881 5.87253C69.6881 5.35861 70.202 5.10165 71.2524 5.10165C72.2938 5.10165 72.9474 5.2459 72.9474 6.07088H75.4314V6.06638Z" fill="#3B1082"/>
<path d="M51.2863 7.45485C51.2863 6.12497 50.529 5.50736 49.411 5.50736C48.284 5.50736 47.5537 6.12497 47.5537 7.45485V11.8683H45.1328V7.37821C45.1328 4.44796 47.5762 3.2984 49.42 3.2984C51.2413 3.2984 53.7072 4.44796 53.7072 7.37821V11.8683H51.2818V7.45485H51.2863Z" fill="#3B1082"/>
<path d="M59.8834 9.95677C58.5084 9.95677 57.4761 9.01007 57.4761 7.67117C57.4761 6.3503 58.5084 5.42164 59.8834 5.42164C61.3124 5.42164 62.3313 6.3503 62.3313 7.67117C62.3313 9.01007 61.3079 9.95677 59.8834 9.95677ZM64.8242 8.9154V3.45611H62.4259L62.444 4.786C61.93 4.0061 61.0104 3.29382 59.383 3.29382C56.5744 3.29382 55.1364 5.47573 55.1364 7.65765C55.0868 9.86661 56.7097 12.0711 59.2613 12.0711C60.6002 12.0711 61.8309 11.4715 62.4259 10.4121C62.6739 11.1063 63.2599 11.8727 64.5132 11.8727H65.8971V9.83054H65.5095C65.0406 9.82603 64.8242 9.64571 64.8242 8.9154Z" fill="#3B1082"/>
<path d="M79.7232 3.45575H77.2979V11.8723H79.7232V3.45575Z" fill="#3B1082"/>
<path d="M88.7622 3.45575L86.5036 9.40642L83.7943 3.45575H80.9902L85.2864 12.26C84.8807 13.2563 84.5471 13.5493 83.7311 13.5493H82.4779V15.6636H83.9475C85.7598 15.6636 86.7425 14.6673 87.7388 12.2645L91.3904 3.46026H88.7622V3.45575Z" fill="#3B1082"/>
<path d="M96.0698 9.95677C94.6948 9.95677 93.6625 9.01007 93.6625 7.67117C93.6625 6.3503 94.6948 5.42164 96.0698 5.42164C97.4898 5.42164 98.5177 6.3503 98.5177 7.67117C98.5222 9.01007 97.4898 9.95677 96.0698 9.95677ZM101.015 8.9154V3.45611H98.6168L98.6349 4.786C98.1119 4.0061 97.1923 3.29382 95.5649 3.29382C92.7608 3.29382 91.3273 5.47573 91.3273 7.65765C91.2777 9.86661 92.9006 12.0711 95.4432 12.0711C96.7911 12.0711 98.0218 11.4715 98.6168 10.4121C98.8558 11.1063 99.4508 11.8727 100.704 11.8727H102.088V9.83054H101.7C101.218 9.82603 101.015 9.64571 101.015 8.9154Z" fill="#3B1082"/>
<path d="M47.6602 18.5521H45.1328V30.1533H47.6602V18.5521Z" fill="#3B1082"/>
<path d="M51.6421 26.5995C51.6421 27.5304 52.1275 28.4528 53.6689 28.4528C55.0824 28.4528 55.2868 27.6073 55.2868 27.6073H57.9352C57.9352 27.6073 57.6882 30.3317 53.6689 30.3317C50.8672 30.3317 49.1045 28.7603 49.1045 25.9504C49.1045 23.1492 50.8672 21.5862 53.6348 21.5862C56.3768 21.5862 58.131 23.1492 58.131 25.9504C58.131 26.2664 58.0885 26.5995 58.0885 26.5995H51.6421ZM51.6762 25.122H55.5678C55.5678 24.4473 55.1761 23.4737 53.6348 23.4737C52.1275 23.4737 51.6762 24.4473 51.6762 25.122Z" fill="#3B1082"/>
<path d="M64.3468 28.211C65.6935 28.211 66.691 27.2768 66.691 25.9433C66.691 24.6269 65.6935 23.7096 64.3468 23.7096C62.9669 23.7096 61.9693 24.6269 61.9693 25.9433C61.9693 27.2768 62.9669 28.211 64.3468 28.211ZM64.405 34.2583C61.1713 34.2583 59.8495 32.1774 59.8495 30.8355H62.2686C62.2686 30.8355 62.5762 32.1859 64.405 32.1859C66.5913 32.1859 66.8989 30.8185 66.8157 29.2727C66.1341 29.9522 65.2363 30.2834 63.9478 30.2834C61.138 30.2834 59.5752 28.3215 59.5752 25.9433C59.5752 23.115 61.7282 21.5862 64.3302 21.5862C67.1399 21.5862 69.1433 22.9452 69.1433 26.2661V28.7886C69.1433 32.8569 67.1067 34.2583 64.405 34.2583Z" fill="#3B1082"/>
<path d="M80.3336 27.1919V21.7569H77.9211L77.9383 23.0794C77.4127 22.3029 76.4907 21.5862 74.8537 21.5862C72.0361 21.5862 70.5886 23.762 70.5886 25.9377C70.5369 28.139 72.174 30.3317 74.733 30.3317C76.0944 30.3317 77.3265 29.7345 77.921 28.685C78.1709 29.3761 78.7654 30.1355 80.0234 30.1355H81.4193V28.1048H81.0315C80.549 28.1048 80.3336 27.9257 80.3336 27.1919ZM75.362 28.2328C73.9834 28.2328 72.9408 27.2857 72.9408 25.9547C72.9408 24.6322 73.9834 23.7108 75.362 23.7108C76.7923 23.7108 77.8263 24.6322 77.8263 25.9547C77.8263 27.2857 76.7923 28.2328 75.362 28.2328Z" fill="#3B1082"/>
<path d="M85.3912 18.5521H82.8638V30.1533H85.3912V18.5521Z" fill="#3B1082"/>
</svg>
