<svg width="37" height="37" viewBox="0 0 37 37" fill="none" xmlns="http://www.w3.org/2000/svg">
<rect y="0.638916" width="36.1062" height="36.1062" rx="18.0531" fill="#ABABAB"/>
<path d="M14.9598 4.5149C16.6397 2.83498 19.3634 2.83498 21.0433 4.5149L32.1276 15.5991C33.8075 17.2791 33.8075 20.0027 32.1276 21.6826L21.0433 32.7669C19.3634 34.4468 16.6397 34.4468 14.9598 32.7669L3.87559 21.6826C2.19568 20.0027 2.19567 17.2791 3.87559 15.5991L14.9598 4.5149Z" fill="#3B1082"/>
<path d="M5.82825 10.7693C5.82825 8.39358 7.75418 6.46765 10.1299 6.46765L25.8736 6.46765C28.2493 6.46765 30.1752 8.39358 30.1752 10.7693V26.513C30.1752 28.8887 28.2493 30.8146 25.8736 30.8146H10.1299C7.75418 30.8146 5.82825 28.8887 5.82825 26.513L5.82825 10.7693Z" fill="#3B1082"/>
<path d="M23.0444 13.1376C23.5883 13.2573 24.1147 13.3596 24.6311 13.4918C25.1799 13.6315 25.7237 13.8012 26.2676 13.9533C26.3449 13.9758 26.3749 14.0057 26.3749 14.093C26.3724 15.7919 26.3898 17.4933 26.3674 19.1922C26.3424 21.0184 25.7662 22.6699 24.656 24.1218C23.4186 25.7409 21.7996 26.7836 19.8188 27.2576C19.0379 27.4447 18.2421 27.5071 17.4413 27.4597C15.5378 27.3474 13.8514 26.6764 12.4095 25.4315C10.9226 24.1517 9.98462 22.5401 9.60792 20.6092C9.50065 20.0604 9.45824 19.5041 9.45824 18.9453C9.45574 17.3362 9.45824 15.7296 9.45325 14.1205C9.45325 14.0132 9.48817 13.9758 9.58547 13.9459C10.6233 13.6141 11.681 13.3521 12.7513 13.1575C12.7612 13.155 12.7712 13.1575 12.7962 13.155C12.7962 13.1974 12.7962 13.2399 12.7962 13.2798C12.7962 15.298 12.7887 17.3187 12.8011 19.3369C12.8086 20.3548 12.9458 21.3601 13.2926 22.3256C13.567 23.0915 13.9737 23.775 14.5799 24.3288C15.1487 24.8453 15.8148 25.1721 16.5607 25.3317C17.6159 25.5587 18.6687 25.5413 19.704 25.2145C20.9264 24.8303 21.7746 24.017 22.3185 22.8719C22.6104 22.2607 22.785 21.6121 22.8947 20.946C23.017 20.2051 23.0469 19.4567 23.0469 18.7083C23.0469 16.9071 23.0469 15.1034 23.0469 13.3022C23.0444 13.2548 23.0444 13.2099 23.0444 13.1376Z" fill="white"/>
<path d="M19.3995 16.8796C18.4042 16.8796 17.4187 16.8796 16.4283 16.8796C16.4283 14.5595 16.4283 12.2419 16.4283 9.9268C16.7377 9.8295 18.8108 9.82202 19.3995 9.91931C19.3995 12.2394 19.3995 14.5595 19.3995 16.8796Z" fill="white"/>
</svg>
